<svg width="90" height="27" viewBox="0 0 90 27" fill="none" xmlns="http://www.w3.org/2000/svg">
<path d="M7.63285 13.285L15.5072 21.1353L20.4831 16.1594C21.3527 15.2899 22.7778 15.2899 23.6473 16.1594C24.5169 17.029 24.5169 18.4541 23.6473 19.3237L17.1014 25.8696C16.2319 26.7391 14.7826 26.7391 13.9372 25.8696L4.49275 16.4251V22.0531C4.49275 23.285 3.47826 24.2995 2.24638 24.2995C1.01449 24.2995 0 23.285 0 22.0531V4.4686C0 3.23671 1.01449 2.22222 2.24638 2.22222C3.47826 2.22222 4.49275 3.23671 4.49275 4.4686V10.0966L13.9372 0.652174C14.8068 -0.217391 16.2319 -0.217391 17.1014 0.652174L23.6473 7.19807C24.5169 8.06763 24.5169 9.49275 23.6473 10.3623C22.7778 11.2319 21.3527 11.2319 20.4831 10.3623L15.4831 5.41063L7.63285 13.285ZM15.5072 11.0386C14.2754 11.0386 13.2609 12.0531 13.2609 13.285C13.2609 14.5169 14.2754 15.5314 15.5072 15.5314C16.7391 15.5314 17.7536 14.5169 17.7536 13.285C17.7778 12.0531 16.7633 11.0386 15.5072 11.0386Z" fill="#28CD96"/>
<path d="M72.9948 7.70546C72.9948 7.24652 72.9948 6.78758 72.9707 6.37695C72.9465 5.96633 72.9224 5.57985 72.8499 5.21753C72.7775 4.85522 72.6808 4.51705 72.5359 4.20304C72.391 3.88903 72.1736 3.59918 71.9079 3.33348C71.5214 2.947 71.1108 2.65715 70.6035 2.46391C70.1204 2.27068 69.5649 2.1499 68.9369 2.1499C68.3089 2.1499 67.7533 2.27068 67.2702 2.46391C66.7871 2.65715 66.3523 2.947 65.9659 3.33348C65.7002 3.59918 65.4828 3.88903 65.3378 4.20304C65.1929 4.51705 65.0963 4.85522 65.0238 5.21753C64.9514 5.57985 64.9272 5.96633 64.9031 6.37695C64.8789 6.78758 64.8789 7.22236 64.8789 7.70546C64.8789 8.18855 64.8789 8.59918 64.9031 9.03396C64.9272 9.44459 64.9514 9.83106 65.0238 10.1934C65.0963 10.5557 65.1688 10.8939 65.3378 11.2079C65.5069 11.5219 65.7002 11.8117 65.9659 12.0774C66.3523 12.4639 66.763 12.7538 67.2702 12.947C67.7533 13.1402 68.3089 13.261 68.9369 13.261C69.5649 13.261 70.1204 13.1402 70.6035 12.947C71.0625 12.7538 71.5214 12.4639 71.9079 12.0774C72.1736 11.8117 72.391 11.5219 72.5359 11.2079C72.6808 10.8939 72.7775 10.5557 72.8499 10.1934C72.9224 9.83106 72.9707 9.44459 72.9707 9.03396C72.9948 8.59918 72.9948 8.18855 72.9948 7.70546ZM70.8451 7.70546C70.8451 8.2127 70.8451 8.67164 70.8209 9.0098C70.7968 9.34797 70.7726 9.63782 70.7243 9.85521C70.676 10.0726 70.6277 10.2658 70.5794 10.3866C70.5311 10.5074 70.4345 10.6523 70.3378 10.7731C70.1929 10.9422 69.9755 11.0871 69.7581 11.1837C69.5407 11.3045 69.275 11.3286 68.961 11.3286C68.647 11.3286 68.4055 11.2803 68.1639 11.1837C67.9224 11.0629 67.7533 10.9422 67.5842 10.7731C67.4634 10.6523 67.4151 10.5315 67.3427 10.3866C67.2702 10.2417 67.2219 10.0726 67.1977 9.85521C67.1494 9.63782 67.1253 9.37212 67.1011 9.0098C67.077 8.67164 67.077 8.2127 67.077 7.70546C67.077 7.19821 67.077 6.73927 67.1011 6.40111C67.1253 6.06294 67.1494 5.77309 67.1977 5.5557C67.2461 5.33831 67.2944 5.14507 67.3427 5.0243C67.4151 4.87937 67.4876 4.7586 67.5842 4.63782C67.7291 4.46874 67.9465 4.32381 68.1639 4.2272C68.3813 4.13058 68.647 4.08227 68.961 4.08227C69.275 4.08227 69.5166 4.13058 69.7581 4.2272C69.9755 4.34797 70.1688 4.46874 70.3378 4.63782C70.4586 4.7586 70.5069 4.87937 70.5794 5.0243C70.6519 5.16922 70.7002 5.33831 70.7243 5.5557C70.7485 5.77309 70.7968 6.03879 70.8209 6.40111C70.8209 6.73927 70.8451 7.17406 70.8451 7.70546Z" fill="#28CD96"/>
<path d="M89.9998 2.41492C89.9998 2.29414 89.9032 2.24583 89.8308 2.24583H88.0675C87.9467 2.24583 87.8984 2.34245 87.8984 2.41492V8.9125L83.5989 2.26999C83.5747 2.22168 83.5506 2.22168 83.4781 2.22168H81.8356C81.739 2.22168 81.6665 2.3183 81.6665 2.39076V12.9463C81.6665 13.0671 81.7631 13.1154 81.8356 13.1154H83.5989C83.7196 13.1154 83.7679 13.0188 83.7679 12.9463V6.42458L88.0675 13.0912C88.0916 13.1396 88.1158 13.1396 88.1882 13.1396H89.8308C89.9515 13.1396 89.9998 13.0429 89.9998 12.9705V2.41492Z" fill="#28CD96"/>
<path d="M78.1884 2.41566C78.1884 2.29489 78.0917 2.24658 78.0193 2.24658H76.256C76.1352 2.24658 76.0869 2.3432 76.0869 2.41566V12.9712C76.0869 13.092 76.1835 13.1403 76.256 13.1403H78.0193C78.1401 13.1403 78.1884 13.0437 78.1884 12.9712V2.41566Z" fill="#28CD96"/>
<path d="M57.1259 7.70474C57.1259 7.19749 57.1259 6.73856 57.15 6.40039C57.1742 6.06223 57.1984 5.77237 57.2467 5.55498C57.3916 4.61295 58.1162 4.0574 59.0583 4.0574C59.6621 4.0574 60.2177 4.27479 60.5558 4.80619C60.7008 5.02358 60.8215 5.26513 60.894 5.57914C60.894 5.60329 60.9182 5.62744 60.9665 5.62744H63.0438C63.0679 5.62744 63.0921 5.60329 63.0921 5.57914C62.8747 4.29894 62.1984 3.16368 60.9665 2.58397C60.4109 2.31827 59.7829 2.17334 59.0824 2.17334C57.8988 2.17334 56.9327 2.58397 56.1356 3.35691C55.7008 3.7917 55.3626 4.37141 55.2418 4.99943C55.1211 5.60329 55.0728 6.54532 55.0728 7.72889C55.0728 8.91247 55.1452 9.83034 55.2418 10.4584C55.3626 11.0864 55.6525 11.6419 56.1356 12.1009C56.9327 12.898 57.923 13.2844 59.0824 13.2844C59.7829 13.2844 60.4109 13.1395 60.9665 12.8738C62.1742 12.3183 62.8505 11.1347 63.0921 9.87865C63.0921 9.8545 63.0921 9.83034 63.0438 9.83034H60.9423C60.894 9.83034 60.894 9.8545 60.8699 9.87865C60.7974 10.1685 60.7008 10.4342 60.5317 10.6516C60.1935 11.1347 59.638 11.3762 59.0341 11.4004C58.1162 11.4004 57.3916 10.8448 57.2225 9.90281C57.1742 9.68541 57.15 9.41971 57.1259 9.05739V7.70474Z" fill="#28CD96"/>
<path d="M35.2172 2.41566C35.2172 2.29489 35.1206 2.24658 35.0481 2.24658H33.2848C33.164 2.24658 33.1157 2.3432 33.1157 2.41566V12.9712C33.1157 13.092 33.2123 13.1403 33.2848 13.1403H35.0481C35.1689 13.1403 35.2172 13.0437 35.2172 12.9712V9.87943L36.6423 8.18861L39.5408 13.1161C39.565 13.1645 39.6133 13.1645 39.6616 13.1645H41.7872C41.8838 13.1645 41.908 13.092 41.8597 13.0195L38.0433 6.59441L41.5457 2.41566C41.6181 2.31905 41.594 2.27074 41.4732 2.27074H39.1302C39.098 2.27074 39.0739 2.27879 39.0577 2.29489L35.2172 6.88426V2.41566Z" fill="#28CD96"/>
<path d="M48.0431 11.3529C47.0528 11.3529 46.1591 10.435 46.1591 9.34803V2.41566C46.1591 2.29489 46.0624 2.24658 45.99 2.24658H44.2267C44.1059 2.24658 44.0576 2.3432 44.0576 2.41566V9.29972C44.0576 11.7152 45.8692 13.2369 48.0914 13.2369C50.3137 13.2369 52.1253 11.691 52.1253 9.29972V2.41566C52.1253 2.29489 52.0286 2.24658 51.9562 2.24658H50.1929C50.0721 2.24658 50.0238 2.3432 50.0238 2.41566V9.34803C49.9513 10.4591 49.0335 11.3529 48.0431 11.3529Z" fill="#28CD96"/>
<path d="M35.1978 24.3309C34.2147 24.3309 33.5094 24.1015 32.8838 23.4686L33.5456 22.8164C34.0239 23.2947 34.5456 23.4396 35.2171 23.4396C36.0698 23.4396 36.5674 23.0725 36.5674 22.4396C36.5674 22.1546 36.4852 21.9155 36.3113 21.7609C36.1471 21.6039 35.9804 21.5411 35.5963 21.4855L34.8258 21.3744C34.2944 21.3019 33.8717 21.1184 33.5867 20.8503C33.2654 20.5483 33.1084 20.1353 33.1084 19.6015C33.1084 18.4638 33.9345 17.6836 35.292 17.6836C36.1543 17.6836 36.7606 17.9034 37.321 18.4276L36.6881 19.0507C36.2848 18.6643 35.8162 18.5459 35.2654 18.5459C34.4949 18.5459 34.0722 18.9855 34.0722 19.5652C34.0722 19.8044 34.1447 20.0145 34.321 20.1715C34.4852 20.3189 34.7534 20.4276 35.0553 20.4734L35.7992 20.5846C36.4055 20.6763 36.7437 20.8237 37.0191 21.0701C37.3765 21.3817 37.5505 21.8503 37.5505 22.4106C37.5505 23.6135 36.5674 24.3285 35.2002 24.3285L35.1978 24.3309Z" fill="#28CD96"/>
<path d="M42.6233 21.7055H41.1354V24.2755H40.145V17.7417H42.6233C43.8986 17.7417 44.7151 18.5871 44.7151 19.7248C44.7151 20.8625 43.8986 21.7079 42.6233 21.7079V21.7055ZM42.5677 18.6306H41.1354V20.8045H42.5677C43.2561 20.8045 43.7247 20.4108 43.7247 19.7224C43.7247 19.034 43.2561 18.6306 42.5677 18.6306Z" fill="#28CD96"/>
<path d="M51.0222 23.6329C50.5729 24.0821 49.9932 24.3309 49.2975 24.3309C48.6019 24.3309 48.0318 24.0821 47.5801 23.6329C46.9376 22.9904 46.9473 22.2657 46.9473 21.0073C46.9473 19.7488 46.9376 19.0242 47.5801 18.3817C48.0294 17.9324 48.5994 17.6836 49.2975 17.6836C49.9956 17.6836 50.5729 17.9324 51.0222 18.3817C51.6647 19.0242 51.6453 19.7488 51.6453 21.0073C51.6453 22.2657 51.6647 22.9904 51.0222 23.6329ZM50.2685 18.9807C50.0391 18.7319 49.6816 18.5773 49.2951 18.5773C48.9086 18.5773 48.5511 18.7343 48.3217 18.9807C48.0004 19.3285 47.9352 19.6957 47.9352 21.0097C47.9352 22.3237 48.0004 22.6884 48.3217 23.0387C48.5511 23.2875 48.9086 23.442 49.2951 23.442C49.6816 23.442 50.0391 23.285 50.2685 23.0387C50.5898 22.6908 50.655 22.3237 50.655 21.0097C50.655 19.6957 50.5898 19.3309 50.2685 18.9807Z" fill="#28CD96"/>
<path d="M56.4085 18.6301V24.275H55.4182V18.6301H53.6187V17.7388H58.208V18.6301H56.4085Z" fill="#28CD96"/>
<path d="M60.604 24.2755V17.7417H61.5943V23.3866H64.7417V24.2779H60.6016L60.604 24.2755Z" fill="#28CD96"/>
<path d="M67.1406 24.2755V17.7417H68.131V24.2755H67.1406Z" fill="#28CD96"/>
<path d="M75.014 23.587C74.5189 24.1111 73.9029 24.3309 73.2145 24.3309C72.5261 24.3309 71.9488 24.0821 71.4971 23.6329C70.8546 22.9904 70.8643 22.2657 70.8643 21.0073C70.8643 19.7488 70.8546 19.0242 71.4971 18.3817C71.9464 17.9324 72.5164 17.6836 73.2145 17.6836C74.601 17.6836 75.4077 18.5918 75.5913 19.7126H74.5913C74.4246 18.9976 73.9488 18.5749 73.2145 18.5749C72.828 18.5749 72.4802 18.7319 72.2507 18.9783C71.9295 19.3261 71.857 19.6933 71.857 21.0073C71.857 22.3213 71.9295 22.6957 72.2507 23.0459C72.4802 23.2947 72.828 23.4396 73.2145 23.4396C73.6469 23.4396 74.0213 23.2754 74.2797 22.9807C74.5189 22.7053 74.6106 22.3744 74.6106 21.9541V21.587H73.2169V20.7416H75.6034V21.7416C75.6034 22.587 75.4488 23.128 75.0164 23.587H75.014Z" fill="#28CD96"/>
<path d="M81.9711 24.2755V21.4204H79.319V24.2755H78.3286V17.7417H79.319V20.5316H81.9711V17.7417H82.9615V24.2755H81.9711Z" fill="#28CD96"/>
<path d="M88.1473 18.6301V24.275H87.1569V18.6301H85.3574V17.7388H89.9468V18.6301H88.1473Z" fill="#28CD96"/>
</svg>
